Coordinates
version=1
nRows=41
nColumns=38
inDegrees=no

Units are S.I. units (second, meters, Newtons, ...)
If the header above contains a line with 'inDegrees', this indicates whether rotational values are in degrees (yes) or radians (no).

endheader
time	pelvis_tilt	pelvis_list	pelvis_rotation	pelvis_tx	pelvis_ty	pelvis_tz	hip_flexion_r	hip_adduction_r	hip_rotation_r	knee_angle_r	ankle_angle_r	subtalar_angle_r	mtp_angle_r	hip_flexion_l	hip_adduction_l	hip_rotation_l	knee_angle_l	ankle_angle_l	subtalar_angle_l	mtp_angle_l	lumbar_extension	lumbar_bending	lumbar_rotation	arm_flex_r	arm_add_r	arm_rot_r	elbow_flex_r	pro_sup_r	wrist_flex_r	wrist_dev_r	arm_flex_l	arm_add_l	arm_rot_l	elbow_flex_l	pro_sup_l	wrist_flex_l	wrist_dev_l
0.81	2.05654	1.52772	-0.370782	0.538748	0.0483414	0.939318	0.503861	-0.150418	-0.246053	0.862231	-0.287003	0	0	-0.125873	-0.0277252	-0.230628	0.350702	-0.138634	0	0	-0.120933	0.0939409	-0.176315	-0.144534	-0.31509	0.120088	0.878393	1.55827	0	0	0.045783	-0.258758	0.226446	0.966724	1.5708	0	0
0.82	1.97278	1.53066	-0.290008	0.539038	0.0566319	0.937823	0.507221	-0.147384	-0.24586	0.805057	-0.282547	0	0	-0.131684	-0.0265386	-0.232248	0.352037	-0.132105	0	0	-0.116976	0.0921787	-0.188471	-0.12586	-0.328634	0.167084	0.868097	1.51199	0	0	0.0354655	-0.259719	0.201851	0.980409	1.5708	0	0
0.83	1.87595	1.53298	-0.196621	0.539504	0.0649684	0.936286	0.507447	-0.141605	-0.242392	0.741475	-0.277713	0	0	-0.13523	-0.0267765	-0.237434	0.358659	-0.124984	0	0	-0.116131	0.0918819	-0.178598	-0.13697	-0.309785	0.113598	0.869341	1.5708	0	0	0.0447879	-0.258451	0.20951	0.982028	1.5708	0	0
0.84	1.76653	1.53498	-0.090776	0.540007	0.0734245	0.934744	0.503981	-0.134927	-0.235388	0.671355	-0.274201	0	0	-0.143049	-0.02523	-0.235151	0.354449	-0.121225	0	0	-0.113291	0.0909361	-0.1776	-0.134132	-0.308476	0.112624	0.865251	1.5708	0	0	0.0460282	-0.258332	0.205837	0.985582	1.5708	0	0
0.85	1.61463	1.53585	0.0575491	0.540616	0.0820014	0.933035	0.498011	-0.126386	-0.223565	0.595621	-0.269323	0	0	-0.145848	-0.0260079	-0.238384	0.360045	-0.115517	0	0	-0.10808	0.0903471	-0.179395	-0.126706	-0.314581	0.133253	0.859337	1.54674	0	0	0.0442677	-0.258255	0.199181	0.988684	1.5708	0	0
0.86	1.5028	1.53537	0.165683	0.541362	0.0906754	0.931503	0.484259	-0.114777	-0.20416	0.507576	-0.272557	0	0	-0.151739	-0.0273163	-0.23931	0.36162	-0.110636	0	0	-0.105605	0.0908831	-0.17647	-0.125626	-0.310083	0.124727	0.854934	1.5588	0	0	0.0460021	-0.256727	0.1966	0.98872	1.5708	0	0
0.87	1.48896	1.53385	0.176475	0.542192	0.099437	0.930293	0.45875	-0.100081	-0.175093	0.402837	-0.292134	0	0	-0.161567	-0.0303069	-0.239625	0.361749	-0.107209	0	0	-0.107304	0.092929	-0.173791	-0.124072	-0.304561	0.11418	0.850942	1.5708	0	0	0.0476883	-0.254861	0.193155	0.988515	1.5708	0	0
0.88	1.47299	1.53203	0.190559	0.543065	0.1084	0.929019	0.427463	-0.0857833	-0.137084	0.289478	-0.314878	0	0	-0.170572	-0.034185	-0.239837	0.363556	-0.103389	0	0	-0.107592	0.0949468	-0.17382	-0.120093	-0.302991	0.11641	0.845549	1.5708	0	0	0.0474574	-0.253344	0.188589	0.987379	1.5708	0	0
0.89	1.42457	1.53108	0.23808	0.543904	0.117643	0.927471	0.398845	-0.076357	-0.100405	0.187038	-0.330163	0	0	-0.1777	-0.0372718	-0.240542	0.367266	-0.0989322	0	0	-0.105547	0.095634	-0.172827	-0.119314	-0.301049	0.116023	0.841693	1.5708	0	0	0.0481808	-0.252101	0.188201	0.98352	1.5708	0	0
0.9	1.51349	1.53105	0.149953	0.544655	0.126997	0.926291	0.361958	-0.0696814	-0.0638495	0.0847858	-0.373219	0	0	-0.190559	-0.0410856	-0.241934	0.370987	-0.0959216	0	0	-0.110114	0.0966065	-0.178878	-0.112691	-0.301402	0.127439	0.836997	1.5708	0	0	0.0429537	-0.251077	0.178093	0.98513	1.5708	0	0
0.91	1.46252	1.53202	0.201813	0.545325	0.136543	0.924564	0.350494	-0.0686086	-0.0563237	0.0394966	-0.368676	0	0	-0.196541	-0.0427005	-0.24308	0.377579	-0.0925781	0	0	-0.107671	0.0956334	-0.176362	-0.116845	-0.298484	0.120189	0.837212	1.5708	0	0	0.0453324	-0.249592	0.18291	0.977734	1.5708	0	0
0.92	1.52686	1.53266	0.139069	0.545942	0.146163	0.923306	0.334356	-0.0664472	-0.0507962	0	-0.387271	0	0	-0.207155	-0.0457563	-0.245099	0.383926	-0.0901924	0	0	-0.109917	0.095797	-0.186146	-0.107163	-0.303588	0.146369	0.831502	1.55717	0	0	0.036318	-0.247076	0.168318	0.977821	1.5708	0	0
0.93	1.47946	1.53301	0.187649	0.546603	0.155865	0.921847	0.335253	-0.0647665	-0.0591693	0	-0.380176	0	0	-0.212823	-0.0479257	-0.244707	0.390372	-0.0896329	0	0	-0.109047	0.0960514	-0.180091	-0.115893	-0.295936	0.122551	0.834179	1.5708	0	0	0.0412738	-0.245013	0.178685	0.966939	1.5708	0	0
0.94	1.56186	1.53163	0.10711	0.54722	0.165527	0.920933	0.330163	-0.0600635	-0.0673763	0	-0.389226	0	0	-0.22246	-0.0536497	-0.245919	0.399996	-0.0879644	0	0	-0.110999	0.0984771	-0.19289	-0.101059	-0.305778	0.164708	0.825067	1.54004	0	0	0.0301973	-0.242511	0.159508	0.963518	1.5708	0	0
0.95	1.55783	1.53013	0.113271	0.547851	0.175444	0.920026	0.337091	-0.0555083	-0.0804569	0.0246716	-0.375619	0	0	-0.227863	-0.0588084	-0.246158	0.40928	-0.0878604	0	0	-0.111525	0.101191	-0.188933	-0.108529	-0.294765	0.134751	0.824969	1.5708	0	0	0.0327551	-0.237739	0.167092	0.95038	1.5708	0	0
0.96	1.62501	1.52775	0.0475392	0.548601	0.185458	0.9195	0.338325	-0.0492631	-0.0867039	0.0492917	-0.383163	0	0	-0.236881	-0.0650237	-0.246623	0.418195	-0.0896922	0	0	-0.114243	0.104697	-0.193899	-0.102984	-0.297245	0.149666	0.820213	1.56595	0	0	0.0265548	-0.23465	0.161247	0.941946	1.5708	0	0
0.97	1.6328	1.52534	0.0412046	0.549419	0.195749	0.918927	0.348564	-0.0438864	-0.101212	0.094398	-0.370807	0	0	-0.242963	-0.0709957	-0.245968	0.428191	-0.0923156	0	0	-0.114005	0.108001	-0.194187	-0.104275	-0.293966	0.144692	0.817444	1.5708	0	0	0.0232258	-0.231025	0.161836	0.929563	1.5708	0	0
0.98	1.57241	1.5231	0.103357	0.550315	0.206414	0.918187	0.367418	-0.040351	-0.123916	0.155299	-0.338436	0	0	-0.244964	-0.0767662	-0.244275	0.439937	-0.0960688	0	0	-0.108297	0.110585	-0.196882	-0.104476	-0.293189	0.148737	0.813045	1.5708	0	0	0.0167037	-0.227472	0.160937	0.916319	1.5708	0	0
0.99	1.58647	1.51921	0.0916937	0.551332	0.217343	0.917939	0.371408	-0.0331998	-0.131778	0.186037	-0.33639	0	0	-0.250252	-0.0851215	-0.243306	0.452057	-0.101651	0	0	-0.106089	0.115084	-0.200112	-0.104459	-0.292591	0.153672	0.809144	1.5708	0	0	0.00943473	-0.224229	0.159862	0.903358	1.5708	0	0
1	1.59648	1.51463	0.0846207	0.552418	0.228524	0.917878	0.371955	-0.0251617	-0.136466	0.205821	-0.342805	0	0	-0.254377	-0.0945988	-0.241506	0.465894	-0.10837	0	0	-0.103229	0.1202	-0.203672	-0.105033	-0.291153	0.156753	0.805061	1.5708	0	0	0.00135062	-0.220699	0.15894	0.889562	1.5708	0	0
1.01	1.60153	1.51014	0.0829795	0.553566	0.239955	0.917961	0.371951	-0.0177705	-0.142837	0.223379	-0.353927	0	0	-0.257047	-0.104313	-0.238354	0.481723	-0.116734	0	0	-0.0994885	0.125009	-0.207725	-0.106256	-0.288984	0.158318	0.800974	1.5708	0	0	-0.00790267	-0.217163	0.15783	0.875403	1.5708	0	0
1.02	1.6039	1.50589	0.084307	0.554783	0.251598	0.918197	0.371333	-0.0109499	-0.151754	0.240669	-0.365425	0	0	-0.258187	-0.113917	-0.233109	0.499528	-0.126843	0	0	-0.0950856	0.129248	-0.212026	-0.108181	-0.286653	0.159628	0.797174	1.5708	0	0	-0.0182434	-0.213968	0.15657	0.861296	1.5708	0	0
1.03	1.60753	1.50154	0.0840291	0.556039	0.263329	0.918652	0.369934	-0.00416293	-0.16159	0.258542	-0.372816	0	0	-0.257775	-0.12345	-0.225448	0.519677	-0.138145	0	0	-0.0906145	0.133539	-0.215943	-0.110114	-0.284806	0.162422	0.793375	1.5708	0	0	-0.0288113	-0.210583	0.155624	0.846496	1.5708	0	0
1.04	1.60295	1.49685	0.0909716	0.55734	0.275074	0.919287	0.370761	0.00234456	-0.1729	0.282712	-0.374874	0	0	-0.254936	-0.132769	-0.215161	0.542429	-0.151768	0	0	-0.0852887	0.138086	-0.219699	-0.110865	-0.283496	0.167584	0.788594	1.5708	0	0	-0.0400772	-0.207143	0.154503	0.830977	1.5708	0	0
1.05	1.604	1.49193	0.0902718	0.558764	0.286779	0.920154	0.371923	0.00922226	-0.179666	0.309927	-0.37583	0	0	-0.250629	-0.141579	-0.203647	0.568377	-0.166077	0	0	-0.0807632	0.142878	-0.222177	-0.110112	-0.284644	0.1788	0.784271	1.57	0	0	-0.0522077	-0.204272	0.151883	0.816553	1.5708	0	0
1.06	1.5444	1.48827	0.147265	0.560442	0.298582	0.920701	0.384499	0.0131378	-0.186744	0.35385	-0.361772	0	0	-0.238423	-0.14784	-0.191469	0.599612	-0.184443	0	0	-0.0706593	0.145791	-0.208184	-0.125365	-0.278354	0.15377	0.787834	1.5708	0	0	-0.0527506	-0.202623	0.174277	0.792573	1.5708	0	0
1.07	1.5275	1.4845	0.160692	0.562268	0.310216	0.921636	0.389645	0.0189198	-0.18816	0.387644	-0.353556	0	0	-0.227099	-0.154468	-0.178009	0.635164	-0.203662	0	0	-0.0648022	0.148805	-0.203058	-0.128949	-0.277174	0.154518	0.786652	1.5708	0	0	-0.0624051	-0.200887	0.179601	0.777303	1.5708	0	0
1.08	1.52099	1.48042	0.163143	0.564302	0.321732	0.922659	0.391617	0.0258206	-0.190371	0.416205	-0.343521	0	0	-0.213511	-0.161843	-0.162761	0.676009	-0.224662	0	0	-0.0599333	0.152006	-0.197159	-0.132074	-0.277167	0.158078	0.786864	1.5708	0	0	-0.0721983	-0.200104	0.185655	0.763629	1.5708	0	0
1.09	1.53233	1.47572	0.147495	0.566445	0.333119	0.923775	0.387653	0.034364	-0.193767	0.434944	-0.335388	0	0	-0.19852	-0.170788	-0.147524	0.721646	-0.24525	0	0	-0.0574017	0.156014	-0.191011	-0.134704	-0.277858	0.162957	0.78906	1.5708	0	0	-0.0826279	-0.200143	0.190689	0.753273	1.5708	0	0
1.1	1.56493	1.47043	0.111121	0.568592	0.344301	0.924976	0.376428	0.04431	-0.198715	0.442338	-0.334689	0	0	-0.182653	-0.181179	-0.131798	0.771512	-0.261759	0	0	-0.0586776	0.160558	-0.189027	-0.132807	-0.279128	0.173129	0.791188	1.5708	0	0	-0.0978391	-0.199565	0.184365	0.750373	1.5708	0	0
1.11	1.5502	1.46526	0.122153	0.570695	0.355364	0.925647	0.369436	0.0527596	-0.206778	0.45044	-0.319724	0	0	-0.158153	-0.191156	-0.116232	0.826101	-0.287177	0	0	-0.0529463	0.164894	-0.178758	-0.13959	-0.281674	0.175339	0.79925	1.5708	0	0	-0.103882	-0.203045	0.202022	0.739913	1.5708	0	0
1.12	1.55407	1.46024	0.115516	0.572634	0.366077	0.92634	0.358195	0.0609343	-0.215572	0.453794	-0.309479	0	0	-0.133038	-0.201036	-0.100768	0.883083	-0.305249	0	0	-0.0509858	0.169284	-0.1731	-0.141627	-0.284379	0.181818	0.807225	1.5708	0	0	-0.114078	-0.205473	0.20837	0.736483	1.5708	0	0
1.13	1.56791	1.45591	0.0984524	0.574428	0.376325	0.927005	0.345996	0.0684528	-0.221998	0.457973	-0.298159	0	0	-0.107422	-0.209665	-0.0867124	0.941915	-0.316994	0	0	-0.05172	0.173409	-0.166829	-0.142296	-0.288248	0.189594	0.817158	1.5708	0	0	-0.123767	-0.208063	0.213163	0.736118	1.5708	0	0
1.14	1.57207	1.45158	0.0914223	0.576141	0.386331	0.92757	0.333605	0.0765333	-0.226617	0.458564	-0.287564	0	0	-0.079471	-0.217513	-0.0718064	1.00195	-0.323157	0	0	-0.051356	0.177299	-0.161226	-0.140898	-0.29316	0.200736	0.826015	1.5708	0	0	-0.133309	-0.21113	0.217921	0.736626	1.5708	0	0
1.15	1.58081	1.44802	0.0804946	0.577781	0.396001	0.928263	0.319793	0.0843018	-0.230886	0.456281	-0.28353	0	0	-0.0509719	-0.22481	-0.0585741	1.06237	-0.327178	0	0	-0.0533525	0.180234	-0.153733	-0.140446	-0.293192	0.198776	0.834663	1.5708	0	0	-0.141152	-0.213716	0.220155	0.738704	1.5708	0	0
1.16	1.58003	1.44581	0.0799919	0.579174	0.405432	0.929024	0.307343	0.0901899	-0.233635	0.453994	-0.271613	0	0	-0.0199758	-0.2301	-0.0461958	1.12254	-0.33236	0	0	-0.0520074	0.181721	-0.151426	-0.130948	-0.303297	0.228622	0.838421	1.55206	0	0	-0.149456	-0.217105	0.22399	0.738967	1.5708	0	0
1.17	1.60977	1.44501	0.0507441	0.580303	0.414577	0.930331	0.289237	0.0945597	-0.236504	0.447428	-0.265061	0	0	0.00726034	-0.232905	-0.0332515	1.17944	-0.331674	0	0	-0.0573965	0.182324	-0.142357	-0.13067	-0.298624	0.214312	0.843677	1.5708	0	0	-0.150509	-0.221372	0.235058	0.738208	1.5708	0	0
1.18	1.64144	1.44552	0.0200554	0.581365	0.42364	0.931825	0.270348	0.0971983	-0.239147	0.439703	-0.26103	0	0	0.0338373	-0.233123	-0.0211661	1.23206	-0.321261	0	0	-0.0618152	0.180765	-0.139512	-0.120665	-0.299516	0.224243	0.8423	1.5708	0	0	-0.15591	-0.224031	0.235166	0.739254	1.5708	0	0
1.19	1.65869	1.44728	0.00334515	0.58244	0.432783	0.933277	0.253034	0.0984585	-0.241145	0.431589	-0.256964	0	0	0.0614776	-0.231321	-0.011578	1.27877	-0.308298	0	0	-0.0638662	0.177832	-0.129585	-0.117464	-0.297564	0.219654	0.843089	1.5708	0	0	-0.155905	-0.227365	0.243287	0.736597	1.5708	0	0
1.2	1.68133	1.44957	-0.0180874	0.58341	0.441831	0.934805	0.233104	0.0998153	-0.240395	0.418103	-0.254087	0	0	0.0879766	-0.228003	-0.00236832	1.32029	-0.285326	0	0	-0.0659507	0.173929	-0.123489	-0.109629	-0.29724	0.22424	0.840294	1.5708	0	0	-0.158437	-0.230839	0.247027	0.736598	1.5708	0	0
1.21	1.71148	1.45263	-0.0471377	0.584366	0.450798	0.936346	0.212839	0.100173	-0.239172	0.405891	-0.25111	0	0	0.113007	-0.223117	0.00574743	1.35701	-0.261385	0	0	-0.0686542	0.168784	-0.118636	-0.0997051	-0.297304	0.231949	0.83624	1.5708	0	0	-0.162799	-0.235177	0.248761	0.739718	1.5708	0	0
